# xmcd
#
# Track frame offsets:
# 150
# 22962
# 47435
# 70040
# 86972
# 106952
# 128045
# 152215
# 176777
# 195560
# 220065
# 239515
# 266147
# 290677
# 308450
# 323087
#
# Disc length: 4547 seconds
#
#
# Revision: 6
# Processed by: cddbd v1.5.2PL0 Copyright (c) Steve Scherf et al.
# Submitted via: FreeRIP 2.20 
#
DISCID=e111c110
DTITLE=Lara Fabian - En toute intimité
DYEAR=2003
DGENRE=Chanson
TTITLE0=J'y crois encore
TTITLE1=Comme ils disent
TTITLE2=Caruso
TTITLE3=S'en aller
TTITLE4=Voir un ami pleurer
TTITLE5=Je t'aime
TTITLE6=Je suis mon coeur
TTITLE7=Addio del passato
TTITLE8=Mistral gagnant
TTITLE9=Si tu m'aimes - Parce que tu pars
TTITLE10=Tu es mon autre (avec Maurane)
TTITLE11=Medley Starmania
TTITLE12=Calling You
TTITLE13=Tout
TTITLE14=Immortelle
TTITLE15=Bambina (version guitare - voix)
EXTD=
EXTT0=
EXTT1=
EXTT2=
EXTT3=
EXTT4=
EXTT5=
EXTT6=
EXTT7=
EXTT8=
EXTT9=
EXTT10=
EXTT11=
EXTT12=
EXTT13=
EXTT14=
EXTT15=
PLAYORDER=
